<svg width="19" height="19" viewBox="0 0 19 19" fill="none" xmlns="http://www.w3.org/2000/svg">
<g clip-path="url(#clip0_23_1315)">
<path d="M18.0813 4.43769C17.722 4.06127 17.2258 3.83883 16.6612 3.83883H13.8209V3.80461C13.8209 3.37686 13.6498 2.96621 13.3589 2.69245C13.068 2.40157 12.6745 2.23047 12.2467 2.23047H7.11364C6.66877 2.23047 6.27523 2.40157 5.98436 2.69245C5.69348 2.98332 5.52238 3.37686 5.52238 3.80461V3.83883H2.69919C2.13455 3.83883 1.63835 4.06127 1.27904 4.43769C0.91972 4.79701 0.680176 5.31032 0.680176 5.85784V14.3788C0.680176 14.9434 0.902609 15.4396 1.27904 15.7989C1.63835 16.1582 2.15166 16.3978 2.69919 16.3978H16.6612C17.2258 16.3978 17.722 16.1753 18.0813 15.7989C18.4406 15.4396 18.6802 14.9263 18.6802 14.3788V5.85784C18.6802 5.29321 18.4577 4.79701 18.0813 4.43769ZM17.7904 14.3788H17.7733C17.7733 14.6867 17.6536 14.9605 17.4482 15.1658C17.2429 15.3712 16.9692 15.4909 16.6612 15.4909H2.69919C2.3912 15.4909 2.11744 15.3712 1.91211 15.1658C1.70679 14.9605 1.58702 14.6867 1.58702 14.3788V5.85784C1.58702 5.54986 1.70679 5.2761 1.91211 5.07077C2.11744 4.86545 2.3912 4.74568 2.69919 4.74568H6.00147C6.25812 4.74568 6.46345 4.54035 6.46345 4.2837V3.7875C6.46345 3.59929 6.53189 3.42819 6.65166 3.30842C6.77143 3.18864 6.94253 3.1202 7.13075 3.1202H12.2467C12.4349 3.1202 12.606 3.18864 12.7258 3.30842C12.8456 3.42819 12.914 3.59929 12.914 3.7875V4.2837C12.914 4.54035 13.1193 4.74568 13.376 4.74568H16.6783C16.9863 4.74568 17.26 4.86545 17.4653 5.07077C17.6707 5.2761 17.7904 5.54986 17.7904 5.85784V14.3788Z" fill="white"/>
<path d="M9.68032 5.90918C8.51682 5.90918 7.45598 6.38827 6.70313 7.14112C5.93317 7.91108 5.47119 8.95481 5.47119 10.1183C5.47119 11.2818 5.95028 12.3426 6.70313 13.0955C7.47309 13.8655 8.51682 14.3274 9.68032 14.3274C10.8438 14.3274 11.9047 13.8483 12.6575 13.0955C13.4275 12.3255 13.8894 11.2818 13.8894 10.1183C13.8894 8.95481 13.4104 7.89397 12.6575 7.14112C11.9047 6.38827 10.8438 5.90918 9.68032 5.90918ZM12.0073 12.4624C11.4085 13.0442 10.5872 13.4206 9.68032 13.4206C8.77347 13.4206 7.95218 13.0442 7.35332 12.4624C6.75446 11.8636 6.39515 11.0423 6.39515 10.1354C6.39515 9.22857 6.77157 8.40728 7.35332 7.80842C7.95218 7.20956 8.77347 6.85024 9.68032 6.85024C10.5872 6.85024 11.4085 7.22667 12.0073 7.80842C12.6062 8.40728 12.9655 9.22857 12.9655 10.1354C12.9826 11.0423 12.6062 11.8636 12.0073 12.4624Z" fill="white"/>
<path d="M15.7715 7.56841C16.2345 7.56841 16.6099 7.19304 16.6099 6.73001C16.6099 6.26697 16.2345 5.8916 15.7715 5.8916C15.3085 5.8916 14.9331 6.26697 14.9331 6.73001C14.9331 7.19304 15.3085 7.56841 15.7715 7.56841Z" fill="white"/>
</g>
<defs>
<clipPath id="clip0_23_1315">
<rect width="18" height="18" fill="white" transform="translate(0.680176 0.314453)"/>
</clipPath>
</defs>
</svg>
